<?xml version="1.0" encoding="UTF-8" standalone="no"?>
<!-- Created with Inkscape (http://www.inkscape.org/) -->
<svg xmlns:dc="http://purl.org/dc/elements/1.1/" xmlns:cc="http://creativecommons.org/ns#" xmlns:rdf="http://www.w3.org/1999/02/22-rdf-syntax-ns#" xmlns:svg="http://www.w3.org/2000/svg" xmlns="http://www.w3.org/2000/svg" xmlns:sodipodi="http://sodipodi.sourceforge.net/DTD/sodipodi-0.dtd" xmlns:inkscape="http://www.inkscape.org/namespaces/inkscape" width="278.95642" height="79.470963" id="svg4822" version="1.1" inkscape:version="0.48.4 r9939" sodipodi:docname="Nouveau document 7">
  <defs id="defs4824"/>
  <sodipodi:namedview id="base" pagecolor="#ffffff" bordercolor="#666666" borderopacity="1.0" inkscape:pageopacity="0.0" inkscape:pageshadow="2" inkscape:zoom="1" inkscape:cx="273.22795" inkscape:cy="-36.250172" inkscape:document-units="px" inkscape:current-layer="layer1" showgrid="false" fit-margin-top="0" fit-margin-left="0" fit-margin-right="0" fit-margin-bottom="0" inkscape:window-width="1680" inkscape:window-height="998" inkscape:window-x="-8" inkscape:window-y="-8" inkscape:window-maximized="1"/>
  <metadata id="metadata4827">
    <rdf:RDF>
      <cc:Work rdf:about="">
        <dc:format>image/svg+xml</dc:format>
        <dc:type rdf:resource="http://purl.org/dc/dcmitype/StillImage"/>
        <dc:title/>
      </cc:Work>
    </rdf:RDF>
  </metadata>
  <g inkscape:label="Calque 1" inkscape:groupmode="layer" id="layer1" transform="translate(-91.043572,-353.81187)">
    <g id="g4849" transform="matrix(0.49115815,0,0,0.49115815,46.32678,220.47244)">
      <path sodipodi:nodetypes="cscsssscscsssssssssccssssssssscsscsssccccscccsscscscccssssscccsssssscssssccssscccccssscccssssccccc" style="fill:#494b57;fill-opacity:1" d="m 442.58869,431.71747 c -15.31042,-3.28228 -27.81952,-12.00767 -33.32291,-23.2435 -2.37769,-4.85433 -2.74917,-6.82657 -2.75219,-14.61179 -0.004,-11.17853 2.30761,-16.8524 9.69173,-23.78504 7.02248,-6.59312 16.04007,-10.6004 38.65563,-17.17801 26.9037,-7.82478 31.17384,-10.05589 31.35371,-16.38207 0.12401,-4.36162 -2.678,-8.01606 -8.049,-10.49767 -6.71195,-3.10117 -21.89729,-3.10214 -27.66566,-0.002 -5.66167,3.04304 -8.61296,6.57178 -9.97161,11.92269 l -1.17705,4.63568 -13.92567,-0.15751 c -7.65912,-0.0866 -14.21643,-0.47224 -14.57179,-0.85691 -1.24824,-1.35116 1.20035,-13.75584 3.74551,-18.97492 5.01436,-10.28241 11.3432,-15.50987 24.03432,-19.85174 10.42642,-3.56707 32.92191,-4.56228 44.56641,-1.97162 15.45653,3.43875 26.55827,11.28135 31.36947,22.16032 3.6212,8.18818 4.76158,21.15159 4.16165,47.30835 -0.38033,16.58255 -0.95841,24.21886 -2.16314,28.57492 -6.25825,22.62834 -25.46646,34.67277 -54.97806,34.47376 -6.64952,-0.0448 -15.20013,-0.74826 -19.00135,-1.56317 z m 26.02349,-23.83276 c 6.2624,-1.85973 12.56799,-7.19755 15.39075,-13.02858 1.72159,-3.55634 2.27908,-6.91297 2.65694,-15.99732 0.26301,-6.32315 0.29699,-11.49663 0.0755,-11.49663 -2.60743,0 -36.2947,10.72518 -39.39835,12.54344 -5.67506,3.32471 -8.33703,7.89848 -8.33703,14.32459 0,4.60828 0.38748,5.51945 3.79717,8.92914 2.08844,2.08844 5.35094,4.2925 7.25,4.89791 5.00949,1.597 12.85173,1.52411 18.56502,-0.17255 z m 153.06583,23.9733 c -6.02867,-1.657 -11.71909,-5.37207 -15.1814,-9.91139 C 600.99695,414.7362 601,414.78099 601,341.11477 l 0,-67.92954 10.93025,0.33847 c 9.13734,0.28296 11.38153,0.67584 13.68138,2.39517 4.18077,3.12546 6.19277,8.08149 7.08148,17.44331 l 0.80689,8.5 12.75,0.27988 12.75,0.27987 -0.002,6.22013 c -0.003,12.22957 -5.76857,17.67422 -18.748,17.70367 l -7.25,0.0165 0,38.35398 0,38.35397 2.39137,2.58034 c 1.31525,1.41918 4.05417,2.89227 6.08649,3.27353 3.67035,0.68857 12.87212,0.009 15.96983,-1.18012 1.44367,-0.55399 1.58741,0.65281 1.33508,11.20941 l -0.28277,11.83024 -6,1.24569 c -7.77732,1.61469 -24.66565,1.52087 -30.82199,-0.17121 z m -243.02282,-1.95448 c -4.95158,-1.76548 -8.4529,-5.03139 -10.76515,-10.04135 -1.69724,-3.67743 -1.84801,-7.266 -1.86963,-44.5 -0.0259,-44.56186 -0.0587,-44.81913 -6.30238,-49.39803 -4.2765,-3.13625 -15.26359,-3.48447 -21.08133,-0.66814 -7.83989,3.79522 -7.6367,2.27946 -7.6367,56.9673 l 0,48.09887 -16,0 -16,0 0,-48.54966 c 0,-54.5531 0.23919,-52.70386 -7.28845,-56.34793 -8.66307,-4.19372 -20.41472,-2.22085 -25.14047,4.22059 -2.0179,2.75051 -2.07723,4.04714 -2.31052,50.5 -0.13169,26.22235 -0.24419,48.2395 -0.25,48.927 -0.008,0.94741 -3.87901,1.25 -15.99133,1.25 l -15.98077,0 0.002,-46.62676 c 0.002,-47.96951 0.59251,-57.78062 3.85943,-64.16862 2.74638,-5.37016 9.76761,-11.90225 15.92413,-14.81475 15.05737,-7.12327 44.61216,-7.23396 58.47869,-0.21901 l 3.80306,1.92393 6.41891,-2.56796 c 8.8075,-3.52342 14.91335,-4.52683 27.54643,-4.52683 19.38843,0 30.64155,3.64455 40.00299,12.95579 9.6478,9.59606 9.33491,7.42472 9.69719,67.29421 l 0.31315,51.75 -7.79222,-0.0439 c -4.28572,-0.0241 -9.52239,-0.66078 -11.63703,-1.41476 z M 530,378.99867 c 0,-30.61213 0.41082,-53.53971 1.01686,-56.75 2.03589,-10.78443 9.01328,-18.20296 20.04874,-21.31631 6.60144,-1.86241 22.45582,-2.0754 33.39355,-0.44862 L 592,301.6053 l 0,11.85344 0,11.85344 -3.25,-0.725 c -1.7875,-0.39875 -6.70559,-0.725 -10.92909,-0.725 -6.23307,0 -8.21029,0.39477 -10.5,2.0964 -5.36089,3.98402 -5.29032,3.24385 -5.30617,55.6536 l -0.0147,48.75 -16,0 -16,0 0,-51.36351 z" id="path4847" inkscape:connector-curvature="0"/>
      <path sodipodi:nodetypes="ssssssssssssscccssssssssssss" inkscape:connector-curvature="0" id="path4845" d="M 137.5,431.93516 C 123.55521,429.17114 116.19697,425.49963 107.48748,416.95994 99.913214,409.53332 94.839485,399.8913 92.420546,388.327 90.153231,377.48756 90.839728,323.6571 93.356509,314.93517 97.706417,299.86052 107.02311,287.39318 119,280.61978 c 10.69701,-6.04958 20.06501,-8.46091 35,-9.00901 14.81346,-0.54365 24.58711,0.57307 34.23361,3.91144 23.30741,8.06601 36.94042,28.08735 33.76572,49.58808 -3.0745,20.82211 -17.0928,33.04214 -47.76067,41.63393 -18.05859,5.05922 -36.05822,10.64295 -38.66043,11.993 -6.96396,3.61294 -10.49708,8.93714 -9.20737,13.87496 2.34222,8.96752 10.63721,13.77393 25.04199,14.5102 18.15401,0.92791 28.20736,-5.05341 32.37239,-19.2602 l 0.87952,-3 17.19263,-0.27372 17.19262,-0.27372 -0.58143,2.77372 c -2.99527,14.28896 -7.51491,23.25316 -15.39654,30.53729 -10.83129,10.01017 -24.50883,14.59507 -45.57204,15.27639 -8.67237,0.28052 -15.33026,-0.0414 -20,-0.96698 z m 3.12329,-81.1321 c 25.52976,-7.65056 29.01013,-8.78584 32.87671,-10.7242 10.62061,-5.32425 15.15402,-12.09093 14.21245,-21.21387 -0.8454,-8.1911 -5.14549,-14.13292 -13.21245,-18.25682 -7.28362,-3.72346 -21.61369,-4.35212 -29.68047,-1.30209 -9.68528,3.66198 -16.52939,12.62542 -18.73007,24.52997 -1.18535,6.41215 -1.50207,28.78019 -0.42279,29.85946 1.10243,1.10243 2.57803,0.81707 14.95662,-2.89245 z" style="fill:#feb415;fill-opacity:1"/>
    </g>
  </g>
</svg>